<?xml version="1.0" encoding="UTF-8" standalone="no"?>
<!DOCTYPE svg PUBLIC "-//W3C//DTD SVG 1.1//EN"
 "http://www.w3.org/Graphics/SVG/1.1/DTD/svg11.dtd">
<!-- Generated by graphviz version 2.38.0 (20140413.2041)
 -->
<!-- Title: %3 Pages: 1 -->
<svg width="576pt" height="165pt"
 viewBox="0.00 0.00 576.27 165.00" xmlns="http://www.w3.org/2000/svg" xmlns:xlink="http://www.w3.org/1999/xlink">
<g id="graph0" class="graph" transform="scale(1 1) rotate(0) translate(4 161)">
<title>%3</title>
<!-- Able -->
<g id="node1" class="node"><title>Able</title>
<ellipse fill="white" stroke="black" cx="27.9475" cy="-18" rx="27.8951" ry="18"/>
<text text-anchor="middle" x="27.9475" y="-14.3" font-family="Times,serif" font-size="14.00">Able</text>
</g>
<!-- Repository -->
<g id="node2" class="node"><title>Repository</title>
<ellipse fill="white" stroke="black" cx="190.291" cy="-112" rx="49.2915" ry="18"/>
<text text-anchor="middle" x="190.291" y="-108.3" font-family="Times,serif" font-size="14.00">Repository</text>
</g>
<!-- Able&#45;&gt;Repository -->
<g id="edge1" class="edge"><title>Able&#45;&gt;Repository</title>
<path fill="none" stroke="black" d="M49.2551,-29.9052C75.7526,-45.4392 122.52,-72.8563 154.667,-91.702"/>
<polygon fill="black" stroke="black" points="152.92,-94.7351 163.317,-96.7732 156.46,-88.6963 152.92,-94.7351"/>
<text text-anchor="middle" x="98.395" y="-103.8" font-family="Times,serif" font-size="14.00">Original</text>
<text text-anchor="middle" x="98.395" y="-88.8" font-family="Times,serif" font-size="14.00">Software</text>
<text text-anchor="middle" x="98.395" y="-73.8" font-family="Times,serif" font-size="14.00">(GPL)</text>
</g>
<!-- BetaCo -->
<g id="node3" class="node"><title>BetaCo</title>
<ellipse fill="white" stroke="black" cx="361.733" cy="-112" rx="37.0935" ry="18"/>
<text text-anchor="middle" x="361.733" y="-108.3" font-family="Times,serif" font-size="14.00">BetaCo</text>
</g>
<!-- Repository&#45;&gt;BetaCo -->
<g id="edge2" class="edge"><title>Repository&#45;&gt;BetaCo</title>
<path fill="none" stroke="black" d="M239.846,-112C263.252,-112 291.192,-112 314.312,-112"/>
<polygon fill="black" stroke="black" points="314.562,-115.5 324.562,-112 314.562,-108.5 314.562,-115.5"/>
<text text-anchor="middle" x="282.186" y="-145.8" font-family="Times,serif" font-size="14.00">Original</text>
<text text-anchor="middle" x="282.186" y="-130.8" font-family="Times,serif" font-size="14.00">Software</text>
<text text-anchor="middle" x="282.186" y="-115.8" font-family="Times,serif" font-size="14.00">(GPL)</text>
</g>
<!-- Charlene -->
<g id="node4" class="node"><title>Charlene</title>
<ellipse fill="white" stroke="black" cx="526.026" cy="-18" rx="42.4939" ry="18"/>
<text text-anchor="middle" x="526.026" y="-14.3" font-family="Times,serif" font-size="14.00">Charlene</text>
</g>
<!-- BetaCo&#45;&gt;Charlene -->
<g id="edge3" class="edge"><title>BetaCo&#45;&gt;Charlene</title>
<path fill="none" stroke="black" d="M386.332,-98.3316C414.017,-82.2964 460.115,-55.5966 491.501,-37.4174"/>
<polygon fill="black" stroke="black" points="493.435,-40.342 500.334,-32.3013 489.927,-34.2847 493.435,-40.342"/>
<text text-anchor="middle" x="441.28" y="-111.8" font-family="Times,serif" font-size="14.00">Patched</text>
<text text-anchor="middle" x="441.28" y="-96.8" font-family="Times,serif" font-size="14.00">Software</text>
<text text-anchor="middle" x="441.28" y="-81.8" font-family="Times,serif" font-size="14.00">(GPL)</text>
</g>
<!-- Charlene&#45;&gt;Able -->
<g id="edge4" class="edge"><title>Charlene&#45;&gt;Able</title>
<path fill="none" stroke="black" stroke-dasharray="5,2" d="M483.592,-18C388.661,-18 156.647,-18 66.0501,-18"/>
<polygon fill="black" stroke="black" points="65.9712,-14.5001 55.9711,-18 65.9711,-21.5001 65.9712,-14.5001"/>
<text text-anchor="middle" x="282.186" y="-51.8" font-family="Times,serif" font-size="14.00">Patched</text>
<text text-anchor="middle" x="282.186" y="-36.8" font-family="Times,serif" font-size="14.00">Software</text>
<text text-anchor="middle" x="282.186" y="-21.8" font-family="Times,serif" font-size="14.00">(GPL)</text>
</g>
</g>
</svg>
