<?xml version="1.0" encoding="UTF-8" standalone="no"?>
<!DOCTYPE svg PUBLIC "-//W3C//DTD SVG 1.1//EN"
 "http://www.w3.org/Graphics/SVG/1.1/DTD/svg11.dtd">
<!-- Generated by graphviz version 2.38.0 (20140413.2041)
 -->
<!-- Title: %3 Pages: 1 -->
<svg width="1283pt" height="551pt"
 viewBox="0.00 0.00 1283.00 551.48" xmlns="http://www.w3.org/2000/svg" xmlns:xlink="http://www.w3.org/1999/xlink">
<g id="graph0" class="graph" transform="scale(1 1) rotate(0) translate(4 547.48)">
<title>%3</title>
<polygon fill="white" stroke="none" points="-4,4 -4,-547.48 1279,-547.48 1279,4 -4,4"/>
<text text-anchor="middle" x="637.5" y="-528.28" font-family="Times,serif" font-size="14.00">K.E. Mitchell’s Software License Taxonomy</text>
<!-- Software\nLicense -->
<g id="node1" class="node"><title>Software\nLicense</title>
<ellipse fill="none" stroke="black" cx="456" cy="-493.61" rx="45.9239" ry="26.7407"/>
<text text-anchor="middle" x="456" y="-497.41" font-family="Times,serif" font-size="14.00">Software</text>
<text text-anchor="middle" x="456" y="-482.41" font-family="Times,serif" font-size="14.00">License</text>
</g>
<!-- Public -->
<g id="node2" class="node"><title>Public</title>
<ellipse fill="none" stroke="black" cx="371" cy="-412.74" rx="33.2948" ry="18"/>
<text text-anchor="middle" x="371" y="-409.04" font-family="Times,serif" font-size="14.00">Public</text>
</g>
<!-- Software\nLicense&#45;&gt;Public -->
<g id="edge1" class="edge"><title>Software\nLicense&#45;&gt;Public</title>
<path fill="none" stroke="black" d="M431.87,-470.22C420.225,-459.415 406.302,-446.497 394.713,-435.743"/>
<polygon fill="black" stroke="black" points="396.83,-432.933 387.119,-428.697 392.069,-438.064 396.83,-432.933"/>
</g>
<!-- Private -->
<g id="node3" class="node"><title>Private</title>
<ellipse fill="none" stroke="black" cx="572" cy="-412.74" rx="35.9954" ry="18"/>
<text text-anchor="middle" x="572" y="-409.04" font-family="Times,serif" font-size="14.00">Private</text>
</g>
<!-- Software\nLicense&#45;&gt;Private -->
<g id="edge2" class="edge"><title>Software\nLicense&#45;&gt;Private</title>
<path fill="none" stroke="black" d="M485.272,-472.708C502.875,-460.739 525.202,-445.558 542.794,-433.598"/>
<polygon fill="black" stroke="black" points="545.21,-436.187 551.512,-427.67 541.274,-430.399 545.21,-436.187"/>
</g>
<!-- Binary -->
<g id="node4" class="node"><title>Binary</title>
<ellipse fill="none" stroke="black" cx="223" cy="-340.74" rx="34.394" ry="18"/>
<text text-anchor="middle" x="223" y="-337.04" font-family="Times,serif" font-size="14.00">Binary</text>
</g>
<!-- Public&#45;&gt;Binary -->
<g id="edge3" class="edge"><title>Public&#45;&gt;Binary</title>
<path fill="none" stroke="black" d="M346.892,-400.338C322.42,-388.763 284.321,-370.743 256.832,-357.742"/>
<polygon fill="black" stroke="black" points="258.127,-354.483 247.591,-353.371 255.134,-360.811 258.127,-354.483"/>
</g>
<!-- Source -->
<g id="node5" class="node"><title>Source</title>
<ellipse fill="none" stroke="black" cx="371" cy="-340.74" rx="35.194" ry="18"/>
<text text-anchor="middle" x="371" y="-337.04" font-family="Times,serif" font-size="14.00">Source</text>
</g>
<!-- Public&#45;&gt;Source -->
<g id="edge4" class="edge"><title>Public&#45;&gt;Source</title>
<path fill="none" stroke="black" d="M371,-394.437C371,-386.723 371,-377.453 371,-368.853"/>
<polygon fill="black" stroke="black" points="374.5,-368.844 371,-358.844 367.5,-368.844 374.5,-368.844"/>
</g>
<!-- End User -->
<g id="node34" class="node"><title>End User</title>
<ellipse fill="none" stroke="black" cx="572" cy="-340.74" rx="44.393" ry="18"/>
<text text-anchor="middle" x="572" y="-337.04" font-family="Times,serif" font-size="14.00">End User</text>
</g>
<!-- Private&#45;&gt;End User -->
<g id="edge33" class="edge"><title>Private&#45;&gt;End User</title>
<path fill="none" stroke="black" d="M572,-394.437C572,-386.723 572,-377.453 572,-368.853"/>
<polygon fill="black" stroke="black" points="575.5,-368.844 572,-358.844 568.5,-368.844 575.5,-368.844"/>
</g>
<!-- Resale -->
<g id="node35" class="node"><title>Resale</title>
<ellipse fill="none" stroke="black" cx="778" cy="-340.74" rx="34.394" ry="18"/>
<text text-anchor="middle" x="778" y="-337.04" font-family="Times,serif" font-size="14.00">Resale</text>
</g>
<!-- Private&#45;&gt;Resale -->
<g id="edge34" class="edge"><title>Private&#45;&gt;Resale</title>
<path fill="none" stroke="black" d="M601.078,-401.859C637.476,-389.491 699.904,-368.278 740.038,-354.64"/>
<polygon fill="black" stroke="black" points="741.389,-357.877 749.731,-351.346 739.137,-351.25 741.389,-357.877"/>
</g>
<!-- Shareware -->
<g id="node6" class="node"><title>Shareware</title>
<polygon fill="none" stroke="black" points="229,-277.87 155,-277.87 155,-241.87 229,-241.87 229,-277.87"/>
<text text-anchor="middle" x="192" y="-256.17" font-family="Times,serif" font-size="14.00">Shareware</text>
</g>
<!-- Binary&#45;&gt;Shareware -->
<g id="edge5" class="edge"><title>Binary&#45;&gt;Shareware</title>
<path fill="none" stroke="black" d="M216.426,-323.014C212.371,-312.698 207.081,-299.238 202.461,-287.484"/>
<polygon fill="black" stroke="black" points="205.695,-286.144 198.779,-278.117 199.18,-288.705 205.695,-286.144"/>
</g>
<!-- Source\nAvailable -->
<g id="node7" class="node"><title>Source\nAvailable</title>
<ellipse fill="none" stroke="black" cx="296" cy="-259.87" rx="48.5816" ry="26.7407"/>
<text text-anchor="middle" x="296" y="-263.67" font-family="Times,serif" font-size="14.00">Source</text>
<text text-anchor="middle" x="296" y="-248.67" font-family="Times,serif" font-size="14.00">Available</text>
</g>
<!-- Source&#45;&gt;Source\nAvailable -->
<g id="edge6" class="edge"><title>Source&#45;&gt;Source\nAvailable</title>
<path fill="none" stroke="black" d="M356.182,-324.158C347.303,-314.82 335.706,-302.624 325.064,-291.434"/>
<polygon fill="black" stroke="black" points="327.322,-288.729 317.895,-283.895 322.249,-293.553 327.322,-288.729"/>
</g>
<!-- Open\nSource -->
<g id="node8" class="node"><title>Open\nSource</title>
<ellipse fill="none" stroke="black" cx="401" cy="-259.87" rx="38.3684" ry="26.7407"/>
<text text-anchor="middle" x="401" y="-263.67" font-family="Times,serif" font-size="14.00">Open</text>
<text text-anchor="middle" x="401" y="-248.67" font-family="Times,serif" font-size="14.00">Source</text>
</g>
<!-- Source&#45;&gt;Open\nSource -->
<g id="edge7" class="edge"><title>Source&#45;&gt;Open\nSource</title>
<path fill="none" stroke="black" d="M377.362,-323.014C380.432,-314.942 384.235,-304.946 387.886,-295.347"/>
<polygon fill="black" stroke="black" points="391.17,-296.558 391.454,-285.967 384.627,-294.07 391.17,-296.558"/>
</g>
<!-- Confluent\nCommunity\nLicense -->
<g id="node9" class="node"><title>Confluent\nCommunity\nLicense</title>
<g id="a_node9"><a xlink:href="https://www.confluent.io/confluent-community-license" xlink:title="Confluent\nCommunity\nLicense">
<polygon fill="none" stroke="black" points="332.5,-197 249.5,-197 249.5,-144 332.5,-144 332.5,-197"/>
<text text-anchor="middle" x="291" y="-181.8" font-family="Times,serif" font-size="14.00">Confluent</text>
<text text-anchor="middle" x="291" y="-166.8" font-family="Times,serif" font-size="14.00">Community</text>
<text text-anchor="middle" x="291" y="-151.8" font-family="Times,serif" font-size="14.00">License</text>
</a>
</g>
</g>
<!-- Source\nAvailable&#45;&gt;Confluent\nCommunity\nLicense -->
<g id="edge8" class="edge"><title>Source\nAvailable&#45;&gt;Confluent\nCommunity\nLicense</title>
<path fill="none" stroke="black" d="M294.5,-232.656C294.042,-224.652 293.53,-215.71 293.042,-207.189"/>
<polygon fill="black" stroke="black" points="296.53,-206.878 292.465,-197.094 289.542,-207.278 296.53,-206.878"/>
</g>
<!-- Permissive -->
<g id="node10" class="node"><title>Permissive</title>
<ellipse fill="none" stroke="black" cx="401" cy="-170.5" rx="50.0912" ry="18"/>
<text text-anchor="middle" x="401" y="-166.8" font-family="Times,serif" font-size="14.00">Permissive</text>
</g>
<!-- Open\nSource&#45;&gt;Permissive -->
<g id="edge9" class="edge"><title>Open\nSource&#45;&gt;Permissive</title>
<path fill="none" stroke="black" d="M401,-232.656C401,-221.95 401,-209.567 401,-198.756"/>
<polygon fill="black" stroke="black" points="404.5,-198.589 401,-188.589 397.5,-198.589 404.5,-198.589"/>
</g>
<!-- Copyleft -->
<g id="node11" class="node"><title>Copyleft</title>
<ellipse fill="none" stroke="black" cx="863" cy="-170.5" rx="41.6928" ry="18"/>
<text text-anchor="middle" x="863" y="-166.8" font-family="Times,serif" font-size="14.00">Copyleft</text>
</g>
<!-- Open\nSource&#45;&gt;Copyleft -->
<g id="edge10" class="edge"><title>Open\nSource&#45;&gt;Copyleft</title>
<path fill="none" stroke="black" d="M429.207,-241.586C435.537,-238.303 442.352,-235.21 449,-233 574.879,-191.159 731.753,-177.718 811.406,-173.45"/>
<polygon fill="black" stroke="black" points="811.849,-176.932 821.658,-172.929 811.494,-169.941 811.849,-176.932"/>
</g>
<!-- Attributive -->
<g id="node12" class="node"><title>Attributive</title>
<ellipse fill="none" stroke="black" cx="173" cy="-90" rx="49.2915" ry="18"/>
<text text-anchor="middle" x="173" y="-86.3" font-family="Times,serif" font-size="14.00">Attributive</text>
</g>
<!-- Permissive&#45;&gt;Attributive -->
<g id="edge11" class="edge"><title>Permissive&#45;&gt;Attributive</title>
<path fill="none" stroke="black" d="M371.012,-156.086C361.493,-152.009 350.874,-147.646 341,-144 300.787,-129.151 254.246,-114.674 220.362,-104.613"/>
<polygon fill="black" stroke="black" points="221.298,-101.24 210.716,-101.767 219.316,-107.954 221.298,-101.24"/>
</g>
<!-- Waiver -->
<g id="node13" class="node"><title>Waiver</title>
<ellipse fill="none" stroke="black" cx="401" cy="-90" rx="37.0935" ry="18"/>
<text text-anchor="middle" x="401" y="-86.3" font-family="Times,serif" font-size="14.00">Waiver</text>
</g>
<!-- Permissive&#45;&gt;Waiver -->
<g id="edge12" class="edge"><title>Permissive&#45;&gt;Waiver</title>
<path fill="none" stroke="black" d="M401,-152.467C401,-142.488 401,-129.654 401,-118.296"/>
<polygon fill="black" stroke="black" points="404.5,-118 401,-108 397.5,-118 404.5,-118"/>
</g>
<!-- Weak -->
<g id="node20" class="node"><title>Weak</title>
<ellipse fill="none" stroke="black" cx="692" cy="-90" rx="31.6951" ry="18"/>
<text text-anchor="middle" x="692" y="-86.3" font-family="Times,serif" font-size="14.00">Weak</text>
</g>
<!-- Copyleft&#45;&gt;Weak -->
<g id="edge19" class="edge"><title>Copyleft&#45;&gt;Weak</title>
<path fill="none" stroke="black" d="M835.526,-156.888C805.58,-143.141 757.654,-121.139 725.518,-106.387"/>
<polygon fill="black" stroke="black" points="726.638,-103.05 716.089,-102.059 723.717,-109.412 726.638,-103.05"/>
</g>
<!-- Strong -->
<g id="node21" class="node"><title>Strong</title>
<ellipse fill="none" stroke="black" cx="816" cy="-90" rx="34.394" ry="18"/>
<text text-anchor="middle" x="816" y="-86.3" font-family="Times,serif" font-size="14.00">Strong</text>
</g>
<!-- Copyleft&#45;&gt;Strong -->
<g id="edge20" class="edge"><title>Copyleft&#45;&gt;Strong</title>
<path fill="none" stroke="black" d="M853.033,-152.852C846.634,-142.165 838.204,-128.086 831.004,-116.06"/>
<polygon fill="black" stroke="black" points="833.932,-114.136 825.792,-107.355 827.926,-117.732 833.932,-114.136"/>
</g>
<!-- Network -->
<g id="node22" class="node"><title>Network</title>
<ellipse fill="none" stroke="black" cx="910" cy="-90" rx="41.6928" ry="18"/>
<text text-anchor="middle" x="910" y="-86.3" font-family="Times,serif" font-size="14.00">Network</text>
</g>
<!-- Copyleft&#45;&gt;Network -->
<g id="edge21" class="edge"><title>Copyleft&#45;&gt;Network</title>
<path fill="none" stroke="black" d="M872.967,-152.852C879.323,-142.236 887.683,-128.274 894.851,-116.303"/>
<polygon fill="black" stroke="black" points="897.913,-118.002 900.047,-107.624 891.907,-114.406 897.913,-118.002"/>
</g>
<!-- Reciprocal -->
<g id="node23" class="node"><title>Reciprocal</title>
<ellipse fill="none" stroke="black" cx="1072" cy="-90" rx="48.9926" ry="18"/>
<text text-anchor="middle" x="1072" y="-86.3" font-family="Times,serif" font-size="14.00">Reciprocal</text>
</g>
<!-- Copyleft&#45;&gt;Reciprocal -->
<g id="edge22" class="edge"><title>Copyleft&#45;&gt;Reciprocal</title>
<path fill="none" stroke="black" d="M893.39,-158.085C929.265,-144.611 989.147,-122.119 1029.58,-106.933"/>
<polygon fill="black" stroke="black" points="1031.03,-110.127 1039.16,-103.335 1028.57,-103.574 1031.03,-110.127"/>
</g>
<!-- Hybrid -->
<g id="node24" class="node"><title>Hybrid</title>
<ellipse fill="none" stroke="black" cx="1211" cy="-90" rx="35.9954" ry="18"/>
<text text-anchor="middle" x="1211" y="-86.3" font-family="Times,serif" font-size="14.00">Hybrid</text>
</g>
<!-- Copyleft&#45;&gt;Hybrid -->
<g id="edge23" class="edge"><title>Copyleft&#45;&gt;Hybrid</title>
<path fill="none" stroke="black" d="M898.931,-161.395C963.682,-146.789 1099.63,-116.123 1168.73,-100.535"/>
<polygon fill="black" stroke="black" points="1169.84,-103.872 1178.83,-98.2575 1168.3,-97.0438 1169.84,-103.872"/>
</g>
<!-- MIT -->
<g id="node14" class="node"><title>MIT</title>
<g id="a_node14"><a xlink:href="https://spdx.org/licenses/MIT.html" xlink:title="MIT">
<polygon fill="none" stroke="black" points="54,-36 0,-36 0,-0 54,-0 54,-36"/>
<text text-anchor="middle" x="27" y="-14.3" font-family="Times,serif" font-size="14.00">MIT</text>
</a>
</g>
</g>
<!-- Attributive&#45;&gt;MIT -->
<g id="edge13" class="edge"><title>Attributive&#45;&gt;MIT</title>
<path fill="none" stroke="black" d="M144.155,-75.1703C121.017,-64.0765 88.398,-48.4374 63.4527,-36.4773"/>
<polygon fill="black" stroke="black" points="64.8339,-33.2581 54.3036,-32.0908 61.8076,-39.5701 64.8339,-33.2581"/>
</g>
<!-- BSD&#45;3&#45;Clause -->
<g id="node15" class="node"><title>BSD&#45;3&#45;Clause</title>
<g id="a_node15"><a xlink:href="https://spdx.org/licenses/BSD-3-Clause.html" xlink:title="BSD&#45;3&#45;Clause">
<polygon fill="none" stroke="black" points="167.5,-36 72.5,-36 72.5,-0 167.5,-0 167.5,-36"/>
<text text-anchor="middle" x="120" y="-14.3" font-family="Times,serif" font-size="14.00">BSD&#45;3&#45;Clause</text>
</a>
</g>
</g>
<!-- Attributive&#45;&gt;BSD&#45;3&#45;Clause -->
<g id="edge14" class="edge"><title>Attributive&#45;&gt;BSD&#45;3&#45;Clause</title>
<path fill="none" stroke="black" d="M160.44,-72.411C154.159,-64.1153 146.417,-53.8906 139.394,-44.6154"/>
<polygon fill="black" stroke="black" points="142.037,-42.3066 133.21,-36.4468 136.456,-46.5321 142.037,-42.3066"/>
</g>
<!-- Apache&#45;2.0 -->
<g id="node16" class="node"><title>Apache&#45;2.0</title>
<g id="a_node16"><a xlink:href="https://spdx.org/licenses/Apache-2.0.html" xlink:title="Apache&#45;2.0">
<polygon fill="none" stroke="black" points="266,-36 186,-36 186,-0 266,-0 266,-36"/>
<text text-anchor="middle" x="226" y="-14.3" font-family="Times,serif" font-size="14.00">Apache&#45;2.0</text>
</a>
</g>
</g>
<!-- Attributive&#45;&gt;Apache&#45;2.0 -->
<g id="edge15" class="edge"><title>Attributive&#45;&gt;Apache&#45;2.0</title>
<path fill="none" stroke="black" d="M185.56,-72.411C191.841,-64.1153 199.583,-53.8906 206.606,-44.6154"/>
<polygon fill="black" stroke="black" points="209.544,-46.5321 212.79,-36.4468 203.963,-42.3066 209.544,-46.5321"/>
</g>
<!-- Unlicense -->
<g id="node17" class="node"><title>Unlicense</title>
<g id="a_node17"><a xlink:href="https://spdx.org/licenses/Unlicense.html" xlink:title="Unlicense">
<polygon fill="none" stroke="black" points="355.5,-36 284.5,-36 284.5,-0 355.5,-0 355.5,-36"/>
<text text-anchor="middle" x="320" y="-14.3" font-family="Times,serif" font-size="14.00">Unlicense</text>
</a>
</g>
</g>
<!-- Waiver&#45;&gt;Unlicense -->
<g id="edge16" class="edge"><title>Waiver&#45;&gt;Unlicense</title>
<path fill="none" stroke="black" d="M383.424,-73.811C372.99,-64.7939 359.529,-53.161 347.694,-42.9334"/>
<polygon fill="black" stroke="black" points="349.673,-40.0172 339.818,-36.1267 345.096,-45.3135 349.673,-40.0172"/>
</g>
<!-- 0BSD -->
<g id="node18" class="node"><title>0BSD</title>
<g id="a_node18"><a xlink:href="https://spdx.org/licenses/0BSD.html" xlink:title="0BSD">
<polygon fill="none" stroke="black" points="428,-36 374,-36 374,-0 428,-0 428,-36"/>
<text text-anchor="middle" x="401" y="-14.3" font-family="Times,serif" font-size="14.00">0BSD</text>
</a>
</g>
</g>
<!-- Waiver&#45;&gt;0BSD -->
<g id="edge17" class="edge"><title>Waiver&#45;&gt;0BSD</title>
<path fill="none" stroke="black" d="M401,-71.6966C401,-63.9827 401,-54.7125 401,-46.1124"/>
<polygon fill="black" stroke="black" points="404.5,-46.1043 401,-36.1043 397.5,-46.1044 404.5,-46.1043"/>
</g>
<!-- CC0&#45;1.0 -->
<g id="node19" class="node"><title>CC0&#45;1.0</title>
<g id="a_node19"><a xlink:href="https://spdx.org/licenses/CC0-1.0.html" xlink:title="CC0&#45;1.0">
<polygon fill="none" stroke="black" points="509.5,-36 446.5,-36 446.5,-0 509.5,-0 509.5,-36"/>
<text text-anchor="middle" x="478" y="-14.3" font-family="Times,serif" font-size="14.00">CC0&#45;1.0</text>
</a>
</g>
</g>
<!-- Waiver&#45;&gt;CC0&#45;1.0 -->
<g id="edge18" class="edge"><title>Waiver&#45;&gt;CC0&#45;1.0</title>
<path fill="none" stroke="black" d="M417.708,-73.811C427.627,-64.7939 440.423,-53.161 451.673,-42.9334"/>
<polygon fill="black" stroke="black" points="454.116,-45.4433 459.161,-36.1267 449.407,-40.2637 454.116,-45.4433"/>
</g>
<!-- LGPL&#45;3.0 -->
<g id="node25" class="node"><title>LGPL&#45;3.0</title>
<g id="a_node25"><a xlink:href="https://spdx.org/licenses/LGPL-3.0.html" xlink:title="LGPL&#45;3.0">
<polygon fill="none" stroke="black" points="600,-36 528,-36 528,-0 600,-0 600,-36"/>
<text text-anchor="middle" x="564" y="-14.3" font-family="Times,serif" font-size="14.00">LGPL&#45;3.0</text>
</a>
</g>
</g>
<!-- Weak&#45;&gt;LGPL&#45;3.0 -->
<g id="edge24" class="edge"><title>Weak&#45;&gt;LGPL&#45;3.0</title>
<path fill="none" stroke="black" d="M669.996,-76.9666C651.983,-67.1159 626.025,-52.9197 604.305,-41.0419"/>
<polygon fill="black" stroke="black" points="605.745,-37.8401 595.292,-36.1127 602.386,-43.9817 605.745,-37.8401"/>
</g>
<!-- MPL&#45;2.0 -->
<g id="node26" class="node"><title>MPL&#45;2.0</title>
<g id="a_node26"><a xlink:href="https://spdx.org/licenses/MPL-2.0.html" xlink:title="MPL&#45;2.0">
<polygon fill="none" stroke="black" points="685.5,-36 618.5,-36 618.5,-0 685.5,-0 685.5,-36"/>
<text text-anchor="middle" x="652" y="-14.3" font-family="Times,serif" font-size="14.00">MPL&#45;2.0</text>
</a>
</g>
</g>
<!-- Weak&#45;&gt;MPL&#45;2.0 -->
<g id="edge25" class="edge"><title>Weak&#45;&gt;MPL&#45;2.0</title>
<path fill="none" stroke="black" d="M682.723,-72.7646C678.015,-64.5255 672.181,-54.3166 666.866,-45.0157"/>
<polygon fill="black" stroke="black" points="669.785,-43.0699 661.785,-36.1239 663.708,-46.5429 669.785,-43.0699"/>
</g>
<!-- EPL&#45;2.0 -->
<g id="node27" class="node"><title>EPL&#45;2.0</title>
<g id="a_node27"><a xlink:href="https://spdx.org/licenses/EPL-2.0.html" xlink:title="EPL&#45;2.0">
<polygon fill="none" stroke="black" points="766,-36 704,-36 704,-0 766,-0 766,-36"/>
<text text-anchor="middle" x="735" y="-14.3" font-family="Times,serif" font-size="14.00">EPL&#45;2.0</text>
</a>
</g>
</g>
<!-- Weak&#45;&gt;EPL&#45;2.0 -->
<g id="edge26" class="edge"><title>Weak&#45;&gt;EPL&#45;2.0</title>
<path fill="none" stroke="black" d="M701.973,-72.7646C707.087,-64.4396 713.436,-54.1037 719.197,-44.7253"/>
<polygon fill="black" stroke="black" points="722.229,-46.4767 724.481,-36.1239 716.265,-42.8127 722.229,-46.4767"/>
</g>
<!-- GPL&#45;3.0 -->
<g id="node28" class="node"><title>GPL&#45;3.0</title>
<g id="a_node28"><a xlink:href="https://spdx.org/licenses/GPL-3.0-only.html" xlink:title="GPL&#45;3.0">
<polygon fill="none" stroke="black" points="848,-36 784,-36 784,-0 848,-0 848,-36"/>
<text text-anchor="middle" x="816" y="-14.3" font-family="Times,serif" font-size="14.00">GPL&#45;3.0</text>
</a>
</g>
</g>
<!-- Strong&#45;&gt;GPL&#45;3.0 -->
<g id="edge27" class="edge"><title>Strong&#45;&gt;GPL&#45;3.0</title>
<path fill="none" stroke="black" d="M816,-71.6966C816,-63.9827 816,-54.7125 816,-46.1124"/>
<polygon fill="black" stroke="black" points="819.5,-46.1043 816,-36.1043 812.5,-46.1044 819.5,-46.1043"/>
</g>
<!-- AGPL&#45;3.0 -->
<g id="node29" class="node"><title>AGPL&#45;3.0</title>
<g id="a_node29"><a xlink:href="https://spdx.org/licenses/AGPL-3.0.html" xlink:title="AGPL&#45;3.0">
<polygon fill="none" stroke="black" points="940,-36 866,-36 866,-0 940,-0 940,-36"/>
<text text-anchor="middle" x="903" y="-14.3" font-family="Times,serif" font-size="14.00">AGPL&#45;3.0</text>
</a>
</g>
</g>
<!-- Network&#45;&gt;AGPL&#45;3.0 -->
<g id="edge28" class="edge"><title>Network&#45;&gt;AGPL&#45;3.0</title>
<path fill="none" stroke="black" d="M908.27,-71.6966C907.498,-63.9827 906.571,-54.7125 905.711,-46.1124"/>
<polygon fill="black" stroke="black" points="909.188,-45.7064 904.71,-36.1043 902.223,-46.403 909.188,-45.7064"/>
</g>
<!-- OSL&#45;3.0 -->
<g id="node30" class="node"><title>OSL&#45;3.0</title>
<g id="a_node30"><a xlink:href="https://spdx.org/licenses/OSL-3.0.html" xlink:title="OSL&#45;3.0">
<polygon fill="none" stroke="black" points="1022,-36 958,-36 958,-0 1022,-0 1022,-36"/>
<text text-anchor="middle" x="990" y="-14.3" font-family="Times,serif" font-size="14.00">OSL&#45;3.0</text>
</a>
</g>
</g>
<!-- Network&#45;&gt;OSL&#45;3.0 -->
<g id="edge29" class="edge"><title>Network&#45;&gt;OSL&#45;3.0</title>
<path fill="none" stroke="black" d="M927.755,-73.4647C938.003,-64.4977 951.107,-53.0314 962.646,-42.9346"/>
<polygon fill="black" stroke="black" points="965.11,-45.4299 970.331,-36.2108 960.5,-40.1618 965.11,-45.4299"/>
</g>
<!-- RPL&#45;1.5 -->
<g id="node31" class="node"><title>RPL&#45;1.5</title>
<g id="a_node31"><a xlink:href="https://spdx.org/licenses/RPL-1.5.html" xlink:title="RPL&#45;1.5">
<polygon fill="none" stroke="black" points="1103.5,-36 1040.5,-36 1040.5,-0 1103.5,-0 1103.5,-36"/>
<text text-anchor="middle" x="1072" y="-14.3" font-family="Times,serif" font-size="14.00">RPL&#45;1.5</text>
</a>
</g>
</g>
<!-- Reciprocal&#45;&gt;RPL&#45;1.5 -->
<g id="edge30" class="edge"><title>Reciprocal&#45;&gt;RPL&#45;1.5</title>
<path fill="none" stroke="black" d="M1072,-71.6966C1072,-63.9827 1072,-54.7125 1072,-46.1124"/>
<polygon fill="black" stroke="black" points="1075.5,-46.1043 1072,-36.1043 1068.5,-46.1044 1075.5,-46.1043"/>
</g>
<!-- Parity&#45;6.0.0 -->
<g id="node32" class="node"><title>Parity&#45;6.0.0</title>
<g id="a_node32"><a xlink:href="https://paritylicense.com/versions/6.0.0" xlink:title="Parity&#45;6.0.0">
<polygon fill="none" stroke="black" points="1202.5,-36 1121.5,-36 1121.5,-0 1202.5,-0 1202.5,-36"/>
<text text-anchor="middle" x="1162" y="-14.3" font-family="Times,serif" font-size="14.00">Parity&#45;6.0.0</text>
</a>
</g>
</g>
<!-- Reciprocal&#45;&gt;Parity&#45;6.0.0 -->
<g id="edge31" class="edge"><title>Reciprocal&#45;&gt;Parity&#45;6.0.0</title>
<path fill="none" stroke="black" d="M1091.97,-73.4647C1103.72,-64.3253 1118.81,-52.5895 1131.97,-42.3536"/>
<polygon fill="black" stroke="black" points="1134.13,-45.113 1139.87,-36.2108 1129.83,-39.5875 1134.13,-45.113"/>
</g>
<!-- SSPL -->
<g id="node33" class="node"><title>SSPL</title>
<g id="a_node33"><a xlink:href="https://www.mongodb.com/licensing/server-side-public-license" xlink:title="SSPL">
<polygon fill="none" stroke="black" points="1275,-36 1221,-36 1221,-0 1275,-0 1275,-36"/>
<text text-anchor="middle" x="1248" y="-14.3" font-family="Times,serif" font-size="14.00">SSPL</text>
</a>
</g>
</g>
<!-- Hybrid&#45;&gt;SSPL -->
<g id="edge32" class="edge"><title>Hybrid&#45;&gt;SSPL</title>
<path fill="none" stroke="black" d="M1219.77,-72.411C1224.02,-64.3693 1229.23,-54.5148 1234.01,-45.4698"/>
<polygon fill="black" stroke="black" points="1237.2,-46.9233 1238.78,-36.4468 1231.01,-43.6521 1237.2,-46.9233"/>
</g>
<!-- EULA -->
<g id="node36" class="node"><title>EULA</title>
<ellipse fill="none" stroke="black" cx="492" cy="-259.87" rx="34.394" ry="18"/>
<text text-anchor="middle" x="492" y="-256.17" font-family="Times,serif" font-size="14.00">EULA</text>
</g>
<!-- End User&#45;&gt;EULA -->
<g id="edge35" class="edge"><title>End User&#45;&gt;EULA</title>
<path fill="none" stroke="black" d="M555.811,-323.78C543.979,-312.115 527.778,-296.143 514.661,-283.211"/>
<polygon fill="black" stroke="black" points="516.929,-280.532 507.351,-276.004 512.015,-285.517 516.929,-280.532"/>
</g>
<!-- Trial -->
<g id="node37" class="node"><title>Trial</title>
<ellipse fill="none" stroke="black" cx="572" cy="-259.87" rx="27.8951" ry="18"/>
<text text-anchor="middle" x="572" y="-256.17" font-family="Times,serif" font-size="14.00">Trial</text>
</g>
<!-- End User&#45;&gt;Trial -->
<g id="edge36" class="edge"><title>End User&#45;&gt;Trial</title>
<path fill="none" stroke="black" d="M572,-322.626C572,-312.601 572,-299.706 572,-288.295"/>
<polygon fill="black" stroke="black" points="575.5,-287.95 572,-277.95 568.5,-287.95 575.5,-287.95"/>
</g>
<!-- Demo -->
<g id="node38" class="node"><title>Demo</title>
<ellipse fill="none" stroke="black" cx="650" cy="-259.87" rx="32.4942" ry="18"/>
<text text-anchor="middle" x="650" y="-256.17" font-family="Times,serif" font-size="14.00">Demo</text>
</g>
<!-- End User&#45;&gt;Demo -->
<g id="edge37" class="edge"><title>End User&#45;&gt;Demo</title>
<path fill="none" stroke="black" d="M587.784,-323.78C599.32,-312.115 615.117,-296.143 627.905,-283.211"/>
<polygon fill="black" stroke="black" points="630.49,-285.575 635.033,-276.004 625.513,-280.653 630.49,-285.575"/>
</g>
<!-- VAR -->
<g id="node39" class="node"><title>VAR</title>
<ellipse fill="none" stroke="black" cx="730" cy="-259.87" rx="29.4969" ry="18"/>
<text text-anchor="middle" x="730" y="-256.17" font-family="Times,serif" font-size="14.00">VAR</text>
</g>
<!-- Resale&#45;&gt;VAR -->
<g id="edge38" class="edge"><title>Resale&#45;&gt;VAR</title>
<path fill="none" stroke="black" d="M768.054,-323.398C761.446,-312.54 752.643,-298.075 745.168,-285.792"/>
<polygon fill="black" stroke="black" points="747.957,-283.644 739.769,-276.921 741.978,-287.283 747.957,-283.644"/>
</g>
<!-- Distributor -->
<g id="node40" class="node"><title>Distributor</title>
<ellipse fill="none" stroke="black" cx="827" cy="-259.87" rx="49.2915" ry="18"/>
<text text-anchor="middle" x="827" y="-256.17" font-family="Times,serif" font-size="14.00">Distributor</text>
</g>
<!-- Resale&#45;&gt;Distributor -->
<g id="edge39" class="edge"><title>Resale&#45;&gt;Distributor</title>
<path fill="none" stroke="black" d="M788.153,-323.398C794.765,-312.755 803.53,-298.648 811.06,-286.527"/>
<polygon fill="black" stroke="black" points="814.218,-288.076 816.522,-277.735 808.272,-284.382 814.218,-288.076"/>
</g>
<!-- Service\nBureau -->
<g id="node41" class="node"><title>Service\nBureau</title>
<ellipse fill="none" stroke="black" cx="935" cy="-259.87" rx="40.1111" ry="26.7407"/>
<text text-anchor="middle" x="935" y="-263.67" font-family="Times,serif" font-size="14.00">Service</text>
<text text-anchor="middle" x="935" y="-248.67" font-family="Times,serif" font-size="14.00">Bureau</text>
</g>
<!-- Resale&#45;&gt;Service\nBureau -->
<g id="edge40" class="edge"><title>Resale&#45;&gt;Service\nBureau</title>
<path fill="none" stroke="black" d="M802.283,-327.863C824.01,-317.2 856.703,-301.067 885,-286.74 888.147,-285.147 891.401,-283.488 894.669,-281.815"/>
<polygon fill="black" stroke="black" points="896.544,-284.786 903.837,-277.101 893.343,-278.561 896.544,-284.786"/>
</g>
</g>
</svg>
