<?xml version="1.0" encoding="UTF-8" standalone="no"?>
<!DOCTYPE svg PUBLIC "-//W3C//DTD SVG 1.1//EN"
 "http://www.w3.org/Graphics/SVG/1.1/DTD/svg11.dtd">
<!-- Generated by graphviz version 2.38.0 (20140413.2041)
 -->
<!-- Title: stockplan Pages: 1 -->
<svg width="1298pt" height="664pt"
 viewBox="0.00 0.00 1297.50 664.00" xmlns="http://www.w3.org/2000/svg" xmlns:xlink="http://www.w3.org/1999/xlink">
<g id="graph0" class="graph" transform="scale(1 1) rotate(0) translate(4 660)">
<title>stockplan</title>
<polygon fill="white" stroke="none" points="-4,4 -4,-660 1293.5,-660 1293.5,4 -4,4"/>
<g id="clust1" class="cluster"><title>cluster_consents</title>
<polygon fill="none" stroke="black" points="850,-537 850,-648 1112,-648 1112,-537 850,-537"/>
<text text-anchor="middle" x="981" y="-632.8" font-family="Times,serif" font-size="14.00">Consents</text>
</g>
<g id="clust2" class="cluster"><title>cluster_awards</title>
<polygon fill="none" stroke="black" points="181,-368 181,-518 990,-518 990,-368 181,-368"/>
<text text-anchor="middle" x="585.5" y="-502.8" font-family="Times,serif" font-size="14.00">Award Agreements</text>
</g>
<g id="clust3" class="cluster"><title>cluster_options</title>
<polygon fill="none" stroke="black" points="189,-376 189,-487 547,-487 547,-376 189,-376"/>
<text text-anchor="middle" x="368" y="-471.8" font-family="Times,serif" font-size="14.00">Option Award Agreements</text>
</g>
<g id="clust4" class="cluster"><title>cluster_stock</title>
<polygon fill="none" stroke="black" points="555,-376 555,-487 982,-487 982,-376 555,-376"/>
<text text-anchor="middle" x="768.5" y="-471.8" font-family="Times,serif" font-size="14.00">Stock Award Agreements</text>
</g>
<g id="clust5" class="cluster"><title>cluster_83b</title>
<polygon fill="none" stroke="black" points="8,-8 8,-119 284,-119 284,-8 8,-8"/>
<text text-anchor="middle" x="146" y="-103.8" font-family="Times,serif" font-size="14.00">Tax Documents</text>
</g>
<!-- Board Consent -->
<g id="node1" class="node"><title>Board Consent</title>
<polygon fill="none" stroke="black" points="950,-617 858,-617 858,-545 956,-545 956,-611 950,-617"/>
<polyline fill="none" stroke="black" points="950,-617 950,-611 "/>
<polyline fill="none" stroke="black" points="956,-611 950,-611 "/>
<text text-anchor="middle" x="907" y="-577.3" font-family="Times,serif" font-size="14.00">Board Consent</text>
</g>
<!-- Early&#45;Exercise Option Notice -->
<g id="node3" class="node"><title>Early&#45;Exercise Option Notice</title>
<polygon fill="none" stroke="black" points="369,-456 197,-456 197,-384 375,-384 375,-450 369,-456"/>
<polyline fill="none" stroke="black" points="369,-456 369,-450 "/>
<polyline fill="none" stroke="black" points="375,-450 369,-450 "/>
<text text-anchor="middle" x="286" y="-416.3" font-family="Times,serif" font-size="14.00">Early&#45;Exercise Option Notice</text>
</g>
<!-- Board Consent&#45;&gt;Early&#45;Exercise Option Notice -->
<g id="edge3" class="edge"><title>Board Consent&#45;&gt;Early&#45;Exercise Option Notice</title>
<path fill="none" stroke="black" d="M857.688,-578.222C744.039,-573.48 467.087,-558.047 384,-518 358.299,-505.613 335.288,-483.736 318.033,-463.89"/>
<polygon fill="black" stroke="black" points="320.599,-461.504 311.473,-456.121 315.251,-466.02 320.599,-461.504"/>
</g>
<!-- Standard Option Notice -->
<g id="node4" class="node"><title>Standard Option Notice</title>
<polygon fill="none" stroke="black" points="533,-456 393,-456 393,-384 539,-384 539,-450 533,-456"/>
<polyline fill="none" stroke="black" points="533,-456 533,-450 "/>
<polyline fill="none" stroke="black" points="539,-450 533,-450 "/>
<text text-anchor="middle" x="466" y="-416.3" font-family="Times,serif" font-size="14.00">Standard Option Notice</text>
</g>
<!-- Board Consent&#45;&gt;Standard Option Notice -->
<g id="edge2" class="edge"><title>Board Consent&#45;&gt;Standard Option Notice</title>
<path fill="none" stroke="black" d="M857.905,-575.516C772.994,-567.098 602.825,-547.113 551,-518 528.111,-505.142 508.358,-483.714 493.67,-464.264"/>
<polygon fill="black" stroke="black" points="496.416,-462.09 487.691,-456.08 490.764,-466.219 496.416,-462.09"/>
</g>
<!-- Restricted Stock Purchase Agreement -->
<g id="node5" class="node"><title>Restricted Stock Purchase Agreement</title>
<polygon fill="none" stroke="black" points="779.5,-456 562.5,-456 562.5,-384 785.5,-384 785.5,-450 779.5,-456"/>
<polyline fill="none" stroke="black" points="779.5,-456 779.5,-450 "/>
<polyline fill="none" stroke="black" points="785.5,-450 779.5,-450 "/>
<text text-anchor="middle" x="674" y="-416.3" font-family="Times,serif" font-size="14.00">Restricted Stock Purchase Agreement</text>
</g>
<!-- Board Consent&#45;&gt;Restricted Stock Purchase Agreement -->
<g id="edge4" class="edge"><title>Board Consent&#45;&gt;Restricted Stock Purchase Agreement</title>
<path fill="none" stroke="black" d="M857.971,-555.197C837.985,-544.491 814.936,-531.368 795,-518 769.906,-501.174 743.561,-480.46 721.884,-462.501"/>
<polygon fill="black" stroke="black" points="724.04,-459.741 714.12,-456.021 719.555,-465.116 724.04,-459.741"/>
</g>
<!-- Restricted Stock Agreement -->
<g id="node6" class="node"><title>Restricted Stock Agreement</title>
<polygon fill="none" stroke="black" points="968,-456 804,-456 804,-384 974,-384 974,-450 968,-456"/>
<polyline fill="none" stroke="black" points="968,-456 968,-450 "/>
<polyline fill="none" stroke="black" points="974,-450 968,-450 "/>
<text text-anchor="middle" x="889" y="-416.3" font-family="Times,serif" font-size="14.00">Restricted Stock Agreement</text>
</g>
<!-- Board Consent&#45;&gt;Restricted Stock Agreement -->
<g id="edge5" class="edge"><title>Board Consent&#45;&gt;Restricted Stock Agreement</title>
<path fill="none" stroke="black" d="M903.005,-544.713C900.384,-521.554 896.931,-491.057 894.11,-466.137"/>
<polygon fill="black" stroke="black" points="897.586,-465.731 892.984,-456.189 890.631,-466.519 897.586,-465.731"/>
</g>
<!-- Stock Plan -->
<g id="node9" class="node"><title>Stock Plan</title>
<polygon fill="none" stroke="black" points="917.5,-218 848.5,-218 848.5,-146 923.5,-146 923.5,-212 917.5,-218"/>
<polyline fill="none" stroke="black" points="917.5,-218 917.5,-212 "/>
<polyline fill="none" stroke="black" points="923.5,-212 917.5,-212 "/>
<text text-anchor="middle" x="886" y="-178.3" font-family="Times,serif" font-size="14.00">Stock Plan</text>
</g>
<!-- Board Consent&#45;&gt;Stock Plan -->
<g id="edge1" class="edge"><title>Board Consent&#45;&gt;Stock Plan</title>
<path fill="none" stroke="black" d="M953.305,-544.954C969.949,-532.121 984.942,-520.175 986,-518 1015.16,-458.049 994.849,-434.077 986,-368 979.946,-322.797 980.264,-309.347 959,-269 950.985,-253.792 939.883,-238.901 928.754,-225.899"/>
<polygon fill="black" stroke="black" points="931.086,-223.251 921.849,-218.062 925.833,-227.878 931.086,-223.251"/>
</g>
<!-- Valuation Report -->
<g id="node10" class="node"><title>Valuation Report</title>
<polygon fill="none" stroke="black" points="1178,-456 1074,-456 1074,-384 1184,-384 1184,-450 1178,-456"/>
<polyline fill="none" stroke="black" points="1178,-456 1178,-450 "/>
<polyline fill="none" stroke="black" points="1184,-450 1178,-450 "/>
<text text-anchor="middle" x="1129" y="-416.3" font-family="Times,serif" font-size="14.00">Valuation Report</text>
</g>
<!-- Board Consent&#45;&gt;Valuation Report -->
<g id="edge6" class="edge"><title>Board Consent&#45;&gt;Valuation Report</title>
<path fill="none" stroke="black" d="M950.023,-544.854C954.894,-541.876 959.933,-539.177 965,-537 988.631,-526.846 999.153,-538.813 1022,-527 1051.09,-511.96 1077.32,-486.268 1096.54,-463.945"/>
<polygon fill="black" stroke="black" points="1099.28,-466.12 1103.03,-456.212 1093.92,-461.618 1099.28,-466.12"/>
</g>
<!-- Grants Table -->
<g id="node11" class="node"><title>Grants Table</title>
<polygon fill="none" stroke="black" points="1283.5,-456 1202.5,-456 1202.5,-384 1289.5,-384 1289.5,-450 1283.5,-456"/>
<polyline fill="none" stroke="black" points="1283.5,-456 1283.5,-450 "/>
<polyline fill="none" stroke="black" points="1289.5,-450 1283.5,-450 "/>
<text text-anchor="middle" x="1246" y="-416.3" font-family="Times,serif" font-size="14.00">Grants Table</text>
</g>
<!-- Board Consent&#45;&gt;Grants Table -->
<g id="edge7" class="edge"><title>Board Consent&#45;&gt;Grants Table</title>
<path fill="none" stroke="black" d="M948.83,-544.972C954.044,-541.843 959.487,-539.078 965,-537 1012.57,-519.063 1150.39,-545.732 1193,-518 1211.66,-505.856 1224.29,-484.798 1232.53,-465.398"/>
<polygon fill="black" stroke="black" points="1235.8,-466.641 1236.22,-456.055 1229.29,-464.066 1235.8,-466.641"/>
</g>
<!-- Stockholder Consent -->
<g id="node2" class="node"><title>Stockholder Consent</title>
<polygon fill="none" stroke="black" points="1098,-617 974,-617 974,-545 1104,-545 1104,-611 1098,-617"/>
<polyline fill="none" stroke="black" points="1098,-617 1098,-611 "/>
<polyline fill="none" stroke="black" points="1104,-611 1098,-611 "/>
<text text-anchor="middle" x="1039" y="-577.3" font-family="Times,serif" font-size="14.00">Stockholder Consent</text>
</g>
<!-- Stockholder Consent&#45;&gt;Stock Plan -->
<g id="edge8" class="edge"><title>Stockholder Consent&#45;&gt;Stock Plan</title>
<path fill="none" stroke="black" d="M1039.04,-544.932C1037.78,-485.206 1029.36,-361.258 984,-269 972.551,-245.716 951.707,-226.041 932.177,-211.412"/>
<polygon fill="black" stroke="black" points="934.077,-208.467 923.919,-205.455 929.982,-214.144 934.077,-208.467"/>
</g>
<!-- Early&#45;Exercise Stock Option Agreement -->
<g id="node17" class="node"><title>Early&#45;Exercise Stock Option Agreement</title>
<polygon fill="none" stroke="black" points="451.5,-341 220.5,-341 220.5,-269 457.5,-269 457.5,-335 451.5,-341"/>
<polyline fill="none" stroke="black" points="451.5,-341 451.5,-335 "/>
<polyline fill="none" stroke="black" points="457.5,-335 451.5,-335 "/>
<text text-anchor="middle" x="339" y="-301.3" font-family="Times,serif" font-size="14.00">Early&#45;Exercise Stock Option Agreement</text>
</g>
<!-- Early&#45;Exercise Option Notice&#45;&gt;Early&#45;Exercise Stock Option Agreement -->
<g id="edge15" class="edge"><title>Early&#45;Exercise Option Notice&#45;&gt;Early&#45;Exercise Stock Option Agreement</title>
<path fill="none" stroke="black" d="M302.479,-383.866C307.464,-373.236 313.005,-361.424 318.232,-350.278"/>
<polygon fill="black" stroke="black" points="321.454,-351.653 322.531,-341.113 315.116,-348.68 321.454,-351.653"/>
</g>
<!-- Stock Option Agreement -->
<g id="node14" class="node"><title>Stock Option Agreement</title>
<polygon fill="none" stroke="black" points="767.5,-341 620.5,-341 620.5,-269 773.5,-269 773.5,-335 767.5,-341"/>
<polyline fill="none" stroke="black" points="767.5,-341 767.5,-335 "/>
<polyline fill="none" stroke="black" points="773.5,-335 767.5,-335 "/>
<text text-anchor="middle" x="697" y="-301.3" font-family="Times,serif" font-size="14.00">Stock Option Agreement</text>
</g>
<!-- Standard Option Notice&#45;&gt;Stock Option Agreement -->
<g id="edge11" class="edge"><title>Standard Option Notice&#45;&gt;Stock Option Agreement</title>
<path fill="none" stroke="black" d="M522.077,-383.867C531.604,-378.33 541.492,-372.842 551,-368 570.066,-358.291 591.007,-348.765 610.929,-340.204"/>
<polygon fill="black" stroke="black" points="612.476,-343.35 620.306,-336.213 609.734,-336.909 612.476,-343.35"/>
</g>
<!-- 83(b) Acknowledgment -->
<g id="node7" class="node"><title>83(b) Acknowledgment</title>
<polygon fill="none" stroke="black" points="156,-88 16,-88 16,-16 162,-16 162,-82 156,-88"/>
<polyline fill="none" stroke="black" points="156,-88 156,-82 "/>
<polyline fill="none" stroke="black" points="162,-82 156,-82 "/>
<text text-anchor="middle" x="89" y="-48.3" font-family="Times,serif" font-size="14.00">83(b) Acknowledgment</text>
</g>
<!-- Restricted Stock Purchase Agreement&#45;&gt;83(b) Acknowledgment -->
<g id="edge30" class="edge"><title>Restricted Stock Purchase Agreement&#45;&gt;83(b) Acknowledgment</title>
<path fill="none" stroke="black" d="M602.27,-383.988C585.795,-377.444 568.088,-371.551 551,-368 499.102,-357.214 125.667,-371.845 74,-360 54.4241,-355.512 43.8111,-357.926 33,-341 -15.3791,-265.259 29.5322,-157.113 62.119,-97.2113"/>
<polygon fill="black" stroke="black" points="65.2292,-98.8198 67.0258,-88.3784 59.11,-95.4205 65.2292,-98.8198"/>
</g>
<!-- 83(b) Election -->
<g id="node8" class="node"><title>83(b) Election</title>
<polygon fill="none" stroke="black" points="269.5,-88 180.5,-88 180.5,-16 275.5,-16 275.5,-82 269.5,-88"/>
<polyline fill="none" stroke="black" points="269.5,-88 269.5,-82 "/>
<polyline fill="none" stroke="black" points="275.5,-82 269.5,-82 "/>
<text text-anchor="middle" x="228" y="-48.3" font-family="Times,serif" font-size="14.00">83(b) Election</text>
</g>
<!-- Restricted Stock Purchase Agreement&#45;&gt;83(b) Election -->
<g id="edge31" class="edge"><title>Restricted Stock Purchase Agreement&#45;&gt;83(b) Election</title>
<path fill="none" stroke="black" d="M602.27,-383.99C585.795,-377.446 568.088,-371.553 551,-368 538.134,-365.325 87.213,-369.37 78,-360 4.43773,-285.183 35.071,-193.779 116,-127 135.053,-111.278 149.339,-130.874 171,-119 181.371,-113.315 190.72,-104.954 198.705,-96.0794"/>
<polygon fill="black" stroke="black" points="201.581,-98.0994 205.363,-88.2027 196.235,-93.5807 201.581,-98.0994"/>
</g>
<!-- Restricted Stock Purchase Agreement&#45;&gt;Stock Plan -->
<g id="edge32" class="edge"><title>Restricted Stock Purchase Agreement&#45;&gt;Stock Plan</title>
<path fill="none" stroke="black" stroke-dasharray="5,2" d="M733.606,-383.839C750.705,-371.786 768.384,-357.201 782,-341 804.891,-313.761 791.358,-293.667 817,-269 831.342,-255.203 844.091,-265.234 858,-251 864.487,-244.361 869.548,-236.009 873.47,-227.451"/>
<polygon fill="black" stroke="black" points="876.725,-228.736 877.291,-218.157 870.251,-226.075 876.725,-228.736"/>
<text text-anchor="middle" x="850.5" y="-301.3" font-family="Times,serif" font-size="14.00">incorporates</text>
</g>
<!-- Stock Power -->
<g id="node18" class="node"><title>Stock Power</title>
<polygon fill="none" stroke="black" points="523,-88 443,-88 443,-16 529,-16 529,-82 523,-88"/>
<polyline fill="none" stroke="black" points="523,-88 523,-82 "/>
<polyline fill="none" stroke="black" points="529,-82 523,-82 "/>
<text text-anchor="middle" x="486" y="-48.3" font-family="Times,serif" font-size="14.00">Stock Power</text>
</g>
<!-- Restricted Stock Purchase Agreement&#45;&gt;Stock Power -->
<g id="edge29" class="edge"><title>Restricted Stock Purchase Agreement&#45;&gt;Stock Power</title>
<path fill="none" stroke="black" d="M637.126,-383.753C626.607,-371.353 616.51,-356.592 611,-341 600.337,-310.829 603.838,-300.188 611,-269 614.648,-253.114 616.633,-248.578 627,-236 635.481,-225.711 645.037,-229.926 651,-218 665.311,-189.378 667.143,-173.63 651,-146 626.991,-104.907 577.389,-80.553 538.807,-67.1452"/>
<polygon fill="black" stroke="black" points="539.851,-63.8041 529.258,-63.9688 537.642,-70.4463 539.851,-63.8041"/>
</g>
<!-- Restricted Stock Agreement&#45;&gt;83(b) Acknowledgment -->
<g id="edge26" class="edge"><title>Restricted Stock Agreement&#45;&gt;83(b) Acknowledgment</title>
<path fill="none" stroke="black" d="M834.314,-383.998C821.551,-377.454 807.678,-371.558 794,-368 725.441,-350.165 209.612,-388.439 157,-341 88.5093,-279.244 82.6355,-162.491 85.2404,-98.2324"/>
<polygon fill="black" stroke="black" points="88.7478,-98.1676 85.7449,-88.0072 81.7563,-97.8226 88.7478,-98.1676"/>
</g>
<!-- Restricted Stock Agreement&#45;&gt;83(b) Election -->
<g id="edge27" class="edge"><title>Restricted Stock Agreement&#45;&gt;83(b) Election</title>
<path fill="none" stroke="black" d="M833.471,-383.913C820.923,-377.505 807.352,-371.688 794,-368 731.493,-350.736 262.28,-380.693 211,-341 141.177,-286.953 151.82,-231.719 173,-146 177.25,-128.798 185.852,-111.629 195.016,-96.81"/>
<polygon fill="black" stroke="black" points="197.977,-98.6767 200.448,-88.374 192.091,-94.8872 197.977,-98.6767"/>
</g>
<!-- Restricted Stock Agreement&#45;&gt;Stock Plan -->
<g id="edge28" class="edge"><title>Restricted Stock Agreement&#45;&gt;Stock Plan</title>
<path fill="none" stroke="black" stroke-dasharray="5,2" d="M888.554,-383.923C888.029,-342.587 887.154,-273.8 886.577,-228.423"/>
<polygon fill="black" stroke="black" points="890.075,-228.224 886.448,-218.269 883.076,-228.313 890.075,-228.224"/>
<text text-anchor="middle" x="921.5" y="-301.3" font-family="Times,serif" font-size="14.00">incorporates</text>
</g>
<!-- Restricted Stock Agreement&#45;&gt;Stock Power -->
<g id="edge25" class="edge"><title>Restricted Stock Agreement&#45;&gt;Stock Power</title>
<path fill="none" stroke="black" d="M831.126,-383.874C819.18,-377.795 806.44,-372.117 794,-368 715.949,-342.171 683.031,-380.631 611,-341 547.772,-306.213 533.963,-284.099 505,-218 488.325,-179.943 484.402,-132.453 484.159,-98.2063"/>
<polygon fill="black" stroke="black" points="487.659,-98.0394 484.191,-88.0283 480.659,-98.017 487.659,-98.0394"/>
</g>
<!-- California Addendum -->
<g id="node12" class="node"><title>California Addendum</title>
<polygon fill="none" stroke="black" points="962,-88 832,-88 832,-16 968,-16 968,-82 962,-88"/>
<polyline fill="none" stroke="black" points="962,-88 962,-82 "/>
<polyline fill="none" stroke="black" points="968,-82 962,-82 "/>
<text text-anchor="middle" x="900" y="-48.3" font-family="Times,serif" font-size="14.00">California Addendum</text>
</g>
<!-- Stock Plan&#45;&gt;California Addendum -->
<g id="edge9" class="edge"><title>Stock Plan&#45;&gt;California Addendum</title>
<path fill="none" stroke="black" d="M889.863,-145.685C891.469,-130.995 893.354,-113.763 895.06,-98.1683"/>
<polygon fill="black" stroke="black" points="898.542,-98.5214 896.15,-88.2001 891.583,-97.7603 898.542,-98.5214"/>
</g>
<!-- Country&#45;Specific Addendum -->
<g id="node13" class="node"><title>Country&#45;Specific Addendum</title>
<polygon fill="none" stroke="black" points="808,-88 640,-88 640,-16 814,-16 814,-82 808,-88"/>
<polyline fill="none" stroke="black" points="808,-88 808,-82 "/>
<polyline fill="none" stroke="black" points="814,-82 808,-82 "/>
<text text-anchor="middle" x="727" y="-48.3" font-family="Times,serif" font-size="14.00">Country&#45;Specific Addendum</text>
</g>
<!-- Stock Plan&#45;&gt;Country&#45;Specific Addendum -->
<g id="edge10" class="edge"><title>Stock Plan&#45;&gt;Country&#45;Specific Addendum</title>
<path fill="none" stroke="black" d="M848.319,-150.666C827.454,-133.868 801.216,-112.746 778.482,-94.4448"/>
<polygon fill="black" stroke="black" points="780.586,-91.6454 770.602,-88.1009 776.197,-97.0981 780.586,-91.6454"/>
</g>
<!-- Stock Option Agreement&#45;&gt;Stock Plan -->
<g id="edge14" class="edge"><title>Stock Option Agreement&#45;&gt;Stock Plan</title>
<path fill="none" stroke="black" stroke-dasharray="5,2" d="M743.107,-269C758.121,-258.05 775.035,-246.178 791,-236 806.442,-226.155 823.816,-216.164 839.443,-207.55"/>
<polygon fill="black" stroke="black" points="841.316,-210.515 848.414,-202.649 837.96,-204.372 841.316,-210.515"/>
<text text-anchor="middle" x="824.5" y="-239.8" font-family="Times,serif" font-size="14.00">incorporates</text>
</g>
<!-- Stock Option Agreement&#45;&gt;Country&#45;Specific Addendum -->
<g id="edge13" class="edge"><title>Stock Option Agreement&#45;&gt;Country&#45;Specific Addendum</title>
<path fill="none" stroke="black" d="M733.207,-268.898C737.195,-263.304 740.656,-257.278 743,-251 761.67,-201.007 751.923,-139.108 741.292,-97.9624"/>
<polygon fill="black" stroke="black" points="744.649,-96.9663 738.66,-88.2264 737.891,-98.7933 744.649,-96.9663"/>
</g>
<!-- Exercise Agreement -->
<g id="node15" class="node"><title>Exercise Agreement</title>
<polygon fill="none" stroke="black" points="636,-218 514,-218 514,-146 642,-146 642,-212 636,-218"/>
<polyline fill="none" stroke="black" points="636,-218 636,-212 "/>
<polyline fill="none" stroke="black" points="642,-212 636,-212 "/>
<text text-anchor="middle" x="578" y="-178.3" font-family="Times,serif" font-size="14.00">Exercise Agreement</text>
</g>
<!-- Stock Option Agreement&#45;&gt;Exercise Agreement -->
<g id="edge12" class="edge"><title>Stock Option Agreement&#45;&gt;Exercise Agreement</title>
<path fill="none" stroke="black" d="M662.26,-268.677C648.941,-255.133 633.606,-239.541 619.7,-225.401"/>
<polygon fill="black" stroke="black" points="622.084,-222.834 612.577,-218.158 617.094,-227.742 622.084,-222.834"/>
</g>
<!-- EENRSPA -->
<g id="node16" class="node"><title>EENRSPA</title>
<polygon fill="none" stroke="black" points="413.5,-218 196.5,-218 196.5,-146 419.5,-146 419.5,-212 413.5,-218"/>
<polyline fill="none" stroke="black" points="413.5,-218 413.5,-212 "/>
<polyline fill="none" stroke="black" points="419.5,-212 413.5,-212 "/>
<text text-anchor="middle" x="308" y="-193.3" font-family="Times,serif" font-size="14.00">Early Exercise Notice</text>
<text text-anchor="middle" x="308" y="-178.3" font-family="Times,serif" font-size="14.00">and</text>
<text text-anchor="middle" x="308" y="-163.3" font-family="Times,serif" font-size="14.00">Restricted Stock Purchase Agreement</text>
</g>
<!-- EENRSPA&#45;&gt;83(b) Acknowledgment -->
<g id="edge22" class="edge"><title>EENRSPA&#45;&gt;83(b) Acknowledgment</title>
<path fill="none" stroke="black" d="M221.506,-145.874C204.359,-137.803 186.789,-128.71 171,-119 159.225,-111.759 147.25,-103.035 136.22,-94.3366"/>
<polygon fill="black" stroke="black" points="138.36,-91.5658 128.373,-88.0289 133.974,-97.0218 138.36,-91.5658"/>
</g>
<!-- EENRSPA&#45;&gt;83(b) Election -->
<g id="edge23" class="edge"><title>EENRSPA&#45;&gt;83(b) Election</title>
<path fill="none" stroke="black" d="M285.928,-145.685C276.484,-130.575 265.36,-112.776 255.397,-96.8357"/>
<polygon fill="black" stroke="black" points="258.268,-94.8251 250,-88.2001 252.332,-98.5352 258.268,-94.8251"/>
</g>
<!-- EENRSPA&#45;&gt;Stock Power -->
<g id="edge21" class="edge"><title>EENRSPA&#45;&gt;Stock Power</title>
<path fill="none" stroke="black" d="M357.11,-145.685C381.136,-128.408 410.051,-107.615 434.4,-90.1053"/>
<polygon fill="black" stroke="black" points="436.732,-92.7398 442.807,-84.0599 432.645,-87.0566 436.732,-92.7398"/>
</g>
<!-- Early&#45;Exercise Stock Option Agreement&#45;&gt;83(b) Acknowledgment -->
<g id="edge19" class="edge"><title>Early&#45;Exercise Stock Option Agreement&#45;&gt;83(b) Acknowledgment</title>
<path fill="none" stroke="black" d="M388.99,-268.732C404.499,-254.88 419.692,-237.582 428,-218 440.499,-188.542 449.413,-169.78 428,-146 389.574,-103.325 224.087,-140.896 171,-119 156.999,-113.225 143.469,-104.273 131.573,-94.8048"/>
<polygon fill="black" stroke="black" points="133.544,-91.8919 123.613,-88.2005 129.074,-97.2792 133.544,-91.8919"/>
</g>
<!-- Early&#45;Exercise Stock Option Agreement&#45;&gt;83(b) Election -->
<g id="edge20" class="edge"><title>Early&#45;Exercise Stock Option Agreement&#45;&gt;83(b) Election</title>
<path fill="none" stroke="black" d="M241.547,-268.813C219.867,-256.22 199.601,-239.608 187,-218 165.228,-180.667 181.772,-132.065 199.925,-97.2959"/>
<polygon fill="black" stroke="black" points="203.102,-98.7813 204.804,-88.3242 196.952,-95.4371 203.102,-98.7813"/>
</g>
<!-- Early&#45;Exercise Stock Option Agreement&#45;&gt;Stock Plan -->
<g id="edge24" class="edge"><title>Early&#45;Exercise Stock Option Agreement&#45;&gt;Stock Plan</title>
<path fill="none" stroke="black" stroke-dasharray="5,2" d="M457.716,-284.699C510.913,-275.474 574.309,-263.682 631,-251 703.938,-234.684 787.461,-211.551 838.464,-196.914"/>
<polygon fill="black" stroke="black" points="839.578,-200.235 848.219,-194.104 837.64,-193.509 839.578,-200.235"/>
<text text-anchor="middle" x="721.5" y="-239.8" font-family="Times,serif" font-size="14.00">incorporates</text>
</g>
<!-- Early&#45;Exercise Stock Option Agreement&#45;&gt;Country&#45;Specific Addendum -->
<g id="edge18" class="edge"><title>Early&#45;Exercise Stock Option Agreement&#45;&gt;Country&#45;Specific Addendum</title>
<path fill="none" stroke="black" d="M457.669,-295.325C521.22,-285.205 597.253,-263.645 651,-218 687.146,-187.303 707.05,-135.743 717.322,-98.4183"/>
<polygon fill="black" stroke="black" points="720.824,-98.8578 719.969,-88.2975 714.052,-97.0864 720.824,-98.8578"/>
</g>
<!-- Early&#45;Exercise Stock Option Agreement&#45;&gt;Exercise Agreement -->
<g id="edge17" class="edge"><title>Early&#45;Exercise Stock Option Agreement&#45;&gt;Exercise Agreement</title>
<path fill="none" stroke="black" d="M424.325,-268.858C437.073,-263.141 449.967,-257.09 462,-251 478.607,-242.595 496.123,-232.829 512.369,-223.365"/>
<polygon fill="black" stroke="black" points="514.4,-226.231 521.251,-218.149 510.855,-220.195 514.4,-226.231"/>
</g>
<!-- Early&#45;Exercise Stock Option Agreement&#45;&gt;EENRSPA -->
<g id="edge16" class="edge"><title>Early&#45;Exercise Stock Option Agreement&#45;&gt;EENRSPA</title>
<path fill="none" stroke="black" d="M329.95,-268.677C326.703,-256.003 322.997,-241.535 319.565,-228.142"/>
<polygon fill="black" stroke="black" points="322.88,-226.977 317.007,-218.158 316.099,-228.714 322.88,-226.977"/>
</g>
</g>
</svg>
